# xmcd
#
# Track frame offsets:
#	150
#	20532
#	42117
#	61367
#	79602
#	95772
#	113600
#	134490
#	153690
#	175600
#	196860
#	218300
#	230305
#	248200
#	268892
#	286487
#
# Disc length: 4039 seconds
#
# Revision: 1
# Processed by: cddbd v1.4PL0 Copyright (c) Steve Scherf et al.
# Submitted via: audiograbber 1.80.04
#
DISCID=d80fc510
DTITLE=Various Artist - Ohne Filter II [CD 2)
DYEAR=1992
DGENRE=R&B
TTITLE0=Huey Lewis and the News - Give me the keys
TTITLE1=Maceo Parker - Fa Fa Fa
TTITLE2=Joe Louis Walker - Thin line
TTITLE3=Keziah Jones - The wisdom behind the smile
TTITLE4=Tony Joe White - Love M.D.
TTITLE5=Walter Wolfman Washington - What's it gonna take
TTITLE6=John Mayall - Congo Square
TTITLE7=Curtis Mayfield - Gypsy Woman
TTITLE8=Richard Elliot - Stiletto Heels
TTITLE9=Amos Garett - Ha Ha In The Daytime
TTITLE10=Little River Band - Son of a famous man
TTITLE11=Marcia Ball, Angela Strehli, Lou Ann Barton - You can if you think you
TTITLE11=can
TTITLE12=Charles Brown - Seven long days
TTITLE13=The Allmann Brothers - Midnight man
TTITLE14=The holmes brothers - Worried life blues
TTITLE15=The Crusaders - Take it or leave it
EXTD=
EXTT0=
EXTT1=
EXTT2=
EXTT3=
EXTT4=
EXTT5=
EXTT6=
EXTT7=
EXTT8=
EXTT9=
EXTT10=
EXTT11=
EXTT12=
EXTT13=
EXTT14=
EXTT15=
PLAYORDER=
